<?xml version="1.0" encoding="us-ascii" standalone="no"?><svg xmlns="http://www.w3.org/2000/svg" xmlns:xlink="http://www.w3.org/1999/xlink" contentStyleType="text/css" height="862px" preserveAspectRatio="none" style="width:1012px;height:862px;background:#FFFFFF;" version="1.1" viewBox="0 0 1012 862" width="1012px" zoomAndPan="magnify"><defs/><g><rect fill="#FFFFFF" height="71.2656" style="stroke:#181818;stroke-width:1.0;" width="10" x="304.5" y="579.5859"/><rect fill="#FFFFFF" height="71.2656" style="stroke:#181818;stroke-width:1.0;" width="10" x="631.5" y="709.1172"/><line style="stroke:#181818;stroke-width:0.5;stroke-dasharray:5.0,5.0;" x1="33" x2="33" y1="36.2969" y2="827.5156"/><line style="stroke:#181818;stroke-width:0.5;stroke-dasharray:5.0,5.0;" x1="309.5" x2="309.5" y1="36.2969" y2="827.5156"/><line style="stroke:#181818;stroke-width:0.5;stroke-dasharray:5.0,5.0;" x1="636" x2="636" y1="36.2969" y2="827.5156"/><line style="stroke:#181818;stroke-width:0.5;stroke-dasharray:5.0,5.0;" x1="978" x2="978" y1="420.7734" y2="827.5156"/><rect fill="#E2E2F0" height="30.2969" rx="2.5" ry="2.5" style="stroke:#181818;stroke-width:0.5;" width="57" x="5" y="5"/><text fill="#000000" font-family="sans-serif" font-size="14" lengthAdjust="spacing" textLength="43" x="12" y="24.9951">Client</text><rect fill="#E2E2F0" height="30.2969" rx="2.5" ry="2.5" style="stroke:#181818;stroke-width:0.5;" width="57" x="5" y="826.5156"/><text fill="#000000" font-family="sans-serif" font-size="14" lengthAdjust="spacing" textLength="43" x="12" y="846.5107">Client</text><rect fill="#E2E2F0" height="30.2969" rx="2.5" ry="2.5" style="stroke:#181818;stroke-width:0.5;" width="64" x="277.5" y="5"/><text fill="#000000" font-family="sans-serif" font-size="14" lengthAdjust="spacing" textLength="50" x="284.5" y="24.9951">Ledger</text><rect fill="#E2E2F0" height="30.2969" rx="2.5" ry="2.5" style="stroke:#181818;stroke-width:0.5;" width="64" x="277.5" y="826.5156"/><text fill="#000000" font-family="sans-serif" font-size="14" lengthAdjust="spacing" textLength="50" x="284.5" y="846.5107">Ledger</text><rect fill="#E2E2F0" height="30.2969" rx="2.5" ry="2.5" style="stroke:#181818;stroke-width:0.5;" width="135" x="569" y="5"/><text fill="#000000" font-family="sans-serif" font-size="14" lengthAdjust="spacing" textLength="121" x="576" y="24.9951">Accounts service</text><rect fill="#E2E2F0" height="30.2969" rx="2.5" ry="2.5" style="stroke:#181818;stroke-width:0.5;" width="135" x="569" y="826.5156"/><text fill="#000000" font-family="sans-serif" font-size="14" lengthAdjust="spacing" textLength="121" x="576" y="846.5107">Accounts service</text><path d="M962,826.5156 L995,826.5156 C1000,826.5156 1000,839.6641 1000,839.6641 C1000,839.6641 1000,852.8125 995,852.8125 L962,852.8125 C957,852.8125 957,839.6641 957,839.6641 C957,839.6641 957,826.5156 962,826.5156 " fill="#E2E2F0" style="stroke:#181818;stroke-width:0.5;"/><path d="M995,826.5156 C990,826.5156 990,839.6641 990,839.6641 C990,852.8125 995,852.8125 995,852.8125 " fill="none" style="stroke:#181818;stroke-width:0.5;"/><text fill="#000000" font-family="sans-serif" font-size="14" lengthAdjust="spacing" textLength="23" x="962" y="844.5107">MQ</text><rect fill="#FFFFFF" height="71.2656" style="stroke:#181818;stroke-width:1.0;" width="10" x="304.5" y="579.5859"/><rect fill="#FFFFFF" height="71.2656" style="stroke:#181818;stroke-width:1.0;" width="10" x="631.5" y="709.1172"/><rect fill="#EEEEEE" height="3" style="stroke:#EEEEEE;stroke-width:1.0;" width="1005" x="0" y="66.8633"/><line style="stroke:#000000;stroke-width:1.0;" x1="0" x2="1005" y1="66.8633" y2="66.8633"/><line style="stroke:#000000;stroke-width:1.0;" x1="0" x2="1005" y1="69.8633" y2="69.8633"/><rect fill="#EEEEEE" height="23.1328" style="stroke:#000000;stroke-width:2.0;" width="199" x="403" y="56.2969"/><text fill="#000000" font-family="sans-serif" font-size="13" font-weight="bold" lengthAdjust="spacing" textLength="185" x="409" y="72.3638">Create an invoice action</text><polygon fill="#181818" points="297.5,106.5625,307.5,110.5625,297.5,114.5625,301.5,110.5625" style="stroke:#181818;stroke-width:1.0;"/><line style="stroke:#181818;stroke-width:1.0;" x1="33.5" x2="303.5" y1="110.5625" y2="110.5625"/><text fill="#000000" font-family="sans-serif" font-size="13" font-weight="bold" lengthAdjust="spacing" textLength="9" x="40.5" y="105.4966">1</text><text fill="#000000" font-family="sans-serif" font-size="13" lengthAdjust="spacing" textLength="219" x="53.5" y="105.4966">Create invoice Request (issuer_id)</text><polygon fill="#181818" points="44.5,135.6953,34.5,139.6953,44.5,143.6953,40.5,139.6953" style="stroke:#181818;stroke-width:1.0;"/><line style="stroke:#181818;stroke-width:1.0;" x1="38.5" x2="308.5" y1="139.6953" y2="139.6953"/><text fill="#000000" font-family="sans-serif" font-size="13" font-weight="bold" lengthAdjust="spacing" textLength="9" x="50.5" y="134.6294">2</text><text fill="#000000" font-family="sans-serif" font-size="13" lengthAdjust="spacing" textLength="229" x="63.5" y="134.6294">Create invoice Response (issuer_id)</text><rect fill="#EEEEEE" height="3" style="stroke:#EEEEEE;stroke-width:1.0;" width="1005" x="0" y="168.2617"/><line style="stroke:#000000;stroke-width:1.0;" x1="0" x2="1005" y1="168.2617" y2="168.2617"/><line style="stroke:#000000;stroke-width:1.0;" x1="0" x2="1005" y1="171.2617" y2="171.2617"/><rect fill="#EEEEEE" height="23.1328" style="stroke:#000000;stroke-width:2.0;" width="160" x="422.5" y="157.6953"/><text fill="#000000" font-family="sans-serif" font-size="13" font-weight="bold" lengthAdjust="spacing" textLength="146" x="428.5" y="173.7622">Create a bid action</text><polygon fill="#181818" points="297.5,207.9609,307.5,211.9609,297.5,215.9609,301.5,211.9609" style="stroke:#181818;stroke-width:1.0;"/><line style="stroke:#181818;stroke-width:1.0;" x1="33.5" x2="303.5" y1="211.9609" y2="211.9609"/><text fill="#000000" font-family="sans-serif" font-size="13" font-weight="bold" lengthAdjust="spacing" textLength="9" x="40.5" y="206.895">1</text><text fill="#000000" font-family="sans-serif" font-size="13" lengthAdjust="spacing" textLength="207" x="53.5" y="206.895">Create bid Request (investor_id)</text><polygon fill="#181818" points="624.5,237.0938,634.5,241.0938,624.5,245.0938,628.5,241.0938" style="stroke:#181818;stroke-width:1.0;"/><line style="stroke:#181818;stroke-width:1.0;" x1="309.5" x2="630.5" y1="241.0938" y2="241.0938"/><text fill="#000000" font-family="sans-serif" font-size="13" font-weight="bold" lengthAdjust="spacing" textLength="9" x="316.5" y="236.0278">2</text><text fill="#000000" font-family="sans-serif" font-size="13" lengthAdjust="spacing" textLength="260" x="329.5" y="236.0278">Create transaction Request (investor_id)</text><line style="stroke:#181818;stroke-width:1.0;" x1="309.5" x2="351.5" y1="270.2266" y2="270.2266"/><line style="stroke:#181818;stroke-width:1.0;" x1="351.5" x2="351.5" y1="270.2266" y2="283.2266"/><line style="stroke:#181818;stroke-width:1.0;" x1="310.5" x2="351.5" y1="283.2266" y2="283.2266"/><polygon fill="#181818" points="320.5,279.2266,310.5,283.2266,320.5,287.2266,316.5,283.2266" style="stroke:#181818;stroke-width:1.0;"/><text fill="#000000" font-family="sans-serif" font-size="13" font-weight="bold" lengthAdjust="spacing" textLength="8" x="316.5" y="265.1606">3</text><text fill="#000000" font-family="sans-serif" font-size="13" lengthAdjust="spacing" textLength="83" x="328.5" y="265.1606">Check status</text><polygon fill="#181818" points="320.5,308.3594,310.5,312.3594,320.5,316.3594,316.5,312.3594" style="stroke:#181818;stroke-width:1.0;"/><line style="stroke:#181818;stroke-width:1.0;" x1="314.5" x2="635.5" y1="312.3594" y2="312.3594"/><text fill="#000000" font-family="sans-serif" font-size="13" font-weight="bold" lengthAdjust="spacing" textLength="9" x="326.5" y="307.2935">4</text><text fill="#000000" font-family="sans-serif" font-size="13" lengthAdjust="spacing" textLength="290" x="339.5" y="307.2935">Create transaction Response (transaction_id)</text><polygon fill="#181818" points="44.5,337.4922,34.5,341.4922,44.5,345.4922,40.5,341.4922" style="stroke:#181818;stroke-width:1.0;"/><line style="stroke:#181818;stroke-width:1.0;" x1="38.5" x2="308.5" y1="341.4922" y2="341.4922"/><text fill="#000000" font-family="sans-serif" font-size="13" font-weight="bold" lengthAdjust="spacing" textLength="9" x="50.5" y="336.4263">5</text><text fill="#000000" font-family="sans-serif" font-size="13" lengthAdjust="spacing" textLength="192" x="63.5" y="336.4263">Create bid Response (deal_id)</text><rect fill="#EEEEEE" height="3" style="stroke:#EEEEEE;stroke-width:1.0;" width="1005" x="0" y="370.0586"/><line style="stroke:#000000;stroke-width:1.0;" x1="0" x2="1005" y1="370.0586" y2="370.0586"/><line style="stroke:#000000;stroke-width:1.0;" x1="0" x2="1005" y1="373.0586" y2="373.0586"/><rect fill="#EEEEEE" height="23.1328" style="stroke:#000000;stroke-width:2.0;" width="119" x="443" y="359.4922"/><text fill="#000000" font-family="sans-serif" font-size="13" font-weight="bold" lengthAdjust="spacing" textLength="105" x="449" y="375.5591">Invoice is new</text><polygon fill="#181818" points="945,409.7578,955,413.7578,945,417.7578,949,413.7578" style="stroke:#181818;stroke-width:1.0;"/><line style="stroke:#181818;stroke-width:1.0;" x1="309.5" x2="951" y1="413.7578" y2="413.7578"/><text fill="#000000" font-family="sans-serif" font-size="13" font-weight="bold" lengthAdjust="spacing" textLength="9" x="316.5" y="408.6919">1</text><text fill="#000000" font-family="sans-serif" font-size="13" lengthAdjust="spacing" textLength="80" x="329.5" y="408.6919">Invoice if full</text><path d="M962,392.625 L995,392.625 C1000,392.625 1000,405.7734 1000,405.7734 C1000,405.7734 1000,418.9219 995,418.9219 L962,418.9219 C957,418.9219 957,405.7734 957,405.7734 C957,405.7734 957,392.625 962,392.625 " fill="#E2E2F0" style="stroke:#181818;stroke-width:0.5;"/><path d="M995,392.625 C990,392.625 990,405.7734 990,405.7734 C990,418.9219 995,418.9219 995,418.9219 " fill="none" style="stroke:#181818;stroke-width:0.5;"/><text fill="#000000" font-family="sans-serif" font-size="14" lengthAdjust="spacing" textLength="23" x="962" y="410.6201">MQ</text><line style="stroke:#181818;stroke-width:1.0;" x1="309.5" x2="351.5" y1="465.1875" y2="465.1875"/><line style="stroke:#181818;stroke-width:1.0;" x1="351.5" x2="351.5" y1="465.1875" y2="478.1875"/><line style="stroke:#181818;stroke-width:1.0;" x1="310.5" x2="351.5" y1="478.1875" y2="478.1875"/><polygon fill="#181818" points="320.5,474.1875,310.5,478.1875,320.5,482.1875,316.5,478.1875" style="stroke:#181818;stroke-width:1.0;"/><text fill="#000000" font-family="sans-serif" font-size="13" font-weight="bold" lengthAdjust="spacing" textLength="9" x="316.5" y="452.5552">2</text><text fill="#000000" font-family="sans-serif" font-size="13" lengthAdjust="spacing" textLength="178" x="329.5" y="444.9888">Get filled invoices([]invoice)</text><text fill="#000000" font-family="sans-serif" font-size="13" lengthAdjust="spacing" textLength="155" x="329.5" y="460.1216">Set status wait (invoice)</text><polygon fill="#181818" points="44.5,503.3203,34.5,507.3203,44.5,511.3203,40.5,507.3203" style="stroke:#181818;stroke-width:1.0;"/><line style="stroke:#181818;stroke-width:1.0;" x1="38.5" x2="308.5" y1="507.3203" y2="507.3203"/><text fill="#000000" font-family="sans-serif" font-size="13" font-weight="bold" lengthAdjust="spacing" textLength="8" x="50.5" y="502.2544">3</text><text fill="#000000" font-family="sans-serif" font-size="13" lengthAdjust="spacing" textLength="216" x="62.5" y="502.2544">New invoices for check ([]invoice)</text><rect fill="#EEEEEE" height="3" style="stroke:#EEEEEE;stroke-width:1.0;" width="1005" x="0" y="535.8867"/><line style="stroke:#000000;stroke-width:1.0;" x1="0" x2="1005" y1="535.8867" y2="535.8867"/><line style="stroke:#000000;stroke-width:1.0;" x1="0" x2="1005" y1="538.8867" y2="538.8867"/><rect fill="#EEEEEE" height="23.1328" style="stroke:#000000;stroke-width:2.0;" width="122" x="441.5" y="525.3203"/><text fill="#000000" font-family="sans-serif" font-size="13" font-weight="bold" lengthAdjust="spacing" textLength="108" x="447.5" y="541.3872">Invoice is wait</text><polygon fill="#181818" points="292.5,575.5859,302.5,579.5859,292.5,583.5859,296.5,579.5859" style="stroke:#181818;stroke-width:1.0;"/><line style="stroke:#181818;stroke-width:1.0;" x1="33.5" x2="298.5" y1="579.5859" y2="579.5859"/><text fill="#000000" font-family="sans-serif" font-size="13" font-weight="bold" lengthAdjust="spacing" textLength="9" x="40.5" y="574.52">1</text><text fill="#000000" font-family="sans-serif" font-size="13" lengthAdjust="spacing" textLength="239" x="53.5" y="574.52">Approve/Decline Request (invoice_id)</text><line style="stroke:#181818;stroke-width:1.0;" x1="314.5" x2="356.5" y1="608.7188" y2="608.7188"/><line style="stroke:#181818;stroke-width:1.0;" x1="356.5" x2="356.5" y1="608.7188" y2="621.7188"/><line style="stroke:#181818;stroke-width:1.0;" x1="315.5" x2="356.5" y1="621.7188" y2="621.7188"/><polygon fill="#181818" points="325.5,617.7188,315.5,621.7188,325.5,625.7188,321.5,621.7188" style="stroke:#181818;stroke-width:1.0;"/><text fill="#000000" font-family="sans-serif" font-size="13" font-weight="bold" lengthAdjust="spacing" textLength="9" x="321.5" y="603.6528">2</text><text fill="#000000" font-family="sans-serif" font-size="13" lengthAdjust="spacing" textLength="275" x="334.5" y="603.6528">Lock and set status Processing (invoice_id)</text><polygon fill="#181818" points="44.5,646.8516,34.5,650.8516,44.5,654.8516,40.5,650.8516" style="stroke:#181818;stroke-width:1.0;"/><line style="stroke:#181818;stroke-width:1.0;" x1="38.5" x2="308.5" y1="650.8516" y2="650.8516"/><text fill="#000000" font-family="sans-serif" font-size="13" font-weight="bold" lengthAdjust="spacing" textLength="8" x="50.5" y="645.7856">3</text><text fill="#000000" font-family="sans-serif" font-size="13" lengthAdjust="spacing" textLength="172" x="62.5" y="645.7856">Approve/Decline Response</text><polygon fill="#181818" points="966.5,675.9844,976.5,679.9844,966.5,683.9844,970.5,679.9844" style="stroke:#181818;stroke-width:1.0;"/><line style="stroke:#181818;stroke-width:1.0;" x1="309.5" x2="972.5" y1="679.9844" y2="679.9844"/><text fill="#000000" font-family="sans-serif" font-size="13" font-weight="bold" lengthAdjust="spacing" textLength="9" x="316.5" y="674.9185">4</text><text fill="#000000" font-family="sans-serif" font-size="13" lengthAdjust="spacing" textLength="402" x="329.5" y="674.9185">Enqueue Approve/Decline transaction Request (transaction_id)</text><polygon fill="#181818" points="652.5,705.1172,642.5,709.1172,652.5,713.1172,648.5,709.1172" style="stroke:#181818;stroke-width:1.0;"/><line style="stroke:#181818;stroke-width:1.0;" x1="646.5" x2="977.5" y1="709.1172" y2="709.1172"/><text fill="#000000" font-family="sans-serif" font-size="13" font-weight="bold" lengthAdjust="spacing" textLength="9" x="658.5" y="704.0513">5</text><text fill="#000000" font-family="sans-serif" font-size="13" lengthAdjust="spacing" textLength="191" x="671.5" y="704.0513">Dequeue transaction Request</text><line style="stroke:#181818;stroke-width:1.0;" x1="641.5" x2="683.5" y1="738.25" y2="738.25"/><line style="stroke:#181818;stroke-width:1.0;" x1="683.5" x2="683.5" y1="738.25" y2="751.25"/><line style="stroke:#181818;stroke-width:1.0;" x1="642.5" x2="683.5" y1="751.25" y2="751.25"/><polygon fill="#181818" points="652.5,747.25,642.5,751.25,652.5,755.25,648.5,751.25" style="stroke:#181818;stroke-width:1.0;"/><text fill="#000000" font-family="sans-serif" font-size="13" font-weight="bold" lengthAdjust="spacing" textLength="9" x="648.5" y="733.1841">6</text><text fill="#000000" font-family="sans-serif" font-size="13" lengthAdjust="spacing" textLength="305" x="661.5" y="733.1841">Set status transaction with lock (transaction_id)</text><polygon fill="#181818" points="966.5,776.3828,976.5,780.3828,966.5,784.3828,970.5,780.3828" style="stroke:#181818;stroke-width:1.0;"/><line style="stroke:#181818;stroke-width:1.0;" x1="636.5" x2="972.5" y1="780.3828" y2="780.3828"/><text fill="#000000" font-family="sans-serif" font-size="13" font-weight="bold" lengthAdjust="spacing" textLength="9" x="643.5" y="775.3169">7</text><text fill="#000000" font-family="sans-serif" font-size="13" lengthAdjust="spacing" textLength="181" x="656.5" y="775.3169">Approve/Decline transaction</text><polygon fill="#181818" points="320.5,805.5156,310.5,809.5156,320.5,813.5156,316.5,809.5156" style="stroke:#181818;stroke-width:1.0;"/><line style="stroke:#181818;stroke-width:1.0;" x1="314.5" x2="977.5" y1="809.5156" y2="809.5156"/><text fill="#000000" font-family="sans-serif" font-size="13" font-weight="bold" lengthAdjust="spacing" textLength="9" x="326.5" y="804.4497">8</text><text fill="#000000" font-family="sans-serif" font-size="13" lengthAdjust="spacing" textLength="166" x="339.5" y="804.4497">Process transaction result</text><!--SRC=[bL9TJy8m57tVhxZnHJH1tfVCX8Wn9c147zMOqbsWiTpEVeo_RqVPs5Y1-BHcxJdtVDphjRM5IKUZGZAoRYFlkDgC3Fuw98x3NB2LPfiaoR87ZSmYC091fHBS7xaLYh8iOSugSfi5wkH12YGBmtkOOhv2dS8ULuFUAcfZOI2CSQY_HNwJXASLAC0Z85CeCjX1jKN1GkJ_qrC13bgez5zrhEPgpBboP0qOrAKNSjN0hMPami2BDCtaDV8VC9PPPv8-TqHaTqgTGUll-VY2nngM8vCXk2nxtWSh311kkv5vCmvXDc_npkPmUmifDB0bB9sK4OzFQ64ffCIyBiyCFhxsnvjFUlVt8G7OCX4osrqb4Hilk6rOOAaqy5s2BS8ZBnNbfVx7HQ5LYQC9SYa8E-rLFBk8gdJBAiA0YXYTAg-4KUxhQnozQkML6a6hBblVMLz4Q2dn9PqSxLj8uP52FySCqOKytXJFS6Aj9nXe8pI7CFh04siScz1glZraA-mQP1LcJssSUpPFpvbl9nZH6nAeIzmNrX6aqJXf_m00]--></g></svg>