<?xml version="1.0" encoding="us-ascii" standalone="no"?><svg xmlns="http://www.w3.org/2000/svg" xmlns:xlink="http://www.w3.org/1999/xlink" contentStyleType="text/css" height="1480px" preserveAspectRatio="none" style="width:2901px;height:1480px;background:#FFFFFF;" version="1.1" viewBox="0 0 2901 1480" width="2901px" zoomAndPan="magnify"><defs/><g><!--cluster Users service--><g id="cluster_Users service"><path d="M472.5,646 L580.5,646 A3.75,3.75 0 0 1 583,648.5 L590,668.2969 L835.5,668.2969 A2.5,2.5 0 0 1 838,670.7969 L838,1018 A2.5,2.5 0 0 1 835.5,1020.5 L472.5,1020.5 A2.5,2.5 0 0 1 470,1018 L470,648.5 A2.5,2.5 0 0 1 472.5,646 " fill="none" style="stroke:#000000;stroke-width:1.5;"/><line style="stroke:#000000;stroke-width:1.5;" x1="470" x2="590" y1="668.2969" y2="668.2969"/><text fill="#000000" font-family="sans-serif" font-size="14" font-weight="bold" lengthAdjust="spacing" textLength="107" x="474" y="660.9951">Users service</text></g><!--cluster Postgresql--><g id="cluster_Postgresql"><path d="M870,271 C870,261 1330,261 1330,261 C1330,261 1790,261 1790,271 L1790,1453 C1790,1463 1330,1463 1330,1463 C1330,1463 870,1463 870,1453 L870,271 " fill="none" style="stroke:#181818;stroke-width:1.0;"/><path d="M870,271 C870,281 1330,281 1330,281 C1330,281 1790,281 1790,271 " fill="none" style="stroke:#181818;stroke-width:1.0;"/><text fill="#000000" font-family="sans-serif" font-size="14" font-weight="bold" lengthAdjust="spacing" textLength="87" x="1286.5" y="295.9951">Postgresql</text></g><!--cluster Users schema--><g id="cluster_Users schema"><path d="M996.5,1255 L1109.5,1255 A3.75,3.75 0 0 1 1112,1257.5 L1119,1277.2969 L1286.5,1277.2969 A2.5,2.5 0 0 1 1289,1279.7969 L1289,1428.5 A2.5,2.5 0 0 1 1286.5,1431 L996.5,1431 A2.5,2.5 0 0 1 994,1428.5 L994,1257.5 A2.5,2.5 0 0 1 996.5,1255 " fill="none" style="stroke:#000000;stroke-width:1.5;"/><line style="stroke:#000000;stroke-width:1.5;" x1="994" x2="1119" y1="1277.2969" y2="1277.2969"/><text fill="#000000" font-family="sans-serif" font-size="14" font-weight="bold" lengthAdjust="spacing" textLength="112" x="998" y="1269.9951">Users schema</text></g><!--cluster Invoice schema--><g id="cluster_Invoice schema"><path d="M1103.5,327 L1228.5,327 A3.75,3.75 0 0 1 1231,329.5 L1238,349.2969 L1557.5,349.2969 A2.5,2.5 0 0 1 1560,351.7969 L1560,808.5 A2.5,2.5 0 0 1 1557.5,811 L1103.5,811 A2.5,2.5 0 0 1 1101,808.5 L1101,329.5 A2.5,2.5 0 0 1 1103.5,327 " fill="none" style="stroke:#000000;stroke-width:1.5;"/><line style="stroke:#000000;stroke-width:1.5;" x1="1101" x2="1238" y1="349.2969" y2="349.2969"/><text fill="#000000" font-family="sans-serif" font-size="14" font-weight="bold" lengthAdjust="spacing" textLength="124" x="1105" y="341.9951">Invoice schema</text></g><!--cluster Accounts schema--><g id="cluster_Accounts schema"><path d="M904.5,860 L1048.5,860 A3.75,3.75 0 0 1 1051,862.5 L1058,882.2969 L1742.5,882.2969 A2.5,2.5 0 0 1 1745,884.7969 L1745,1203.5 A2.5,2.5 0 0 1 1742.5,1206 L904.5,1206 A2.5,2.5 0 0 1 902,1203.5 L902,862.5 A2.5,2.5 0 0 1 904.5,860 " fill="none" style="stroke:#000000;stroke-width:1.5;"/><line style="stroke:#000000;stroke-width:1.5;" x1="902" x2="1058" y1="882.2969" y2="882.2969"/><text fill="#000000" font-family="sans-serif" font-size="14" font-weight="bold" lengthAdjust="spacing" textLength="143" x="906" y="874.9951">Accounts schema</text></g><!--cluster Ledger service--><g id="cluster_Ledger service"><path d="M8.5,6 L125.5,6 A3.75,3.75 0 0 1 128,8.5 L135,28.2969 L835.5,28.2969 A2.5,2.5 0 0 1 838,30.7969 L838,515.5 A2.5,2.5 0 0 1 835.5,518 L8.5,518 A2.5,2.5 0 0 1 6,515.5 L6,8.5 A2.5,2.5 0 0 1 8.5,6 " fill="none" style="stroke:#000000;stroke-width:1.5;"/><line style="stroke:#000000;stroke-width:1.5;" x1="6" x2="135" y1="28.2969" y2="28.2969"/><text fill="#000000" font-family="sans-serif" font-size="14" font-weight="bold" lengthAdjust="spacing" textLength="116" x="10" y="20.9951">Ledger service</text></g><!--cluster Accounts service--><g id="cluster_Accounts service"><path d="M1824.5,646 L1963.5,646 A3.75,3.75 0 0 1 1966,648.5 L1973,668.2969 L2891.5,668.2969 A2.5,2.5 0 0 1 2894,670.7969 L2894,1018 A2.5,2.5 0 0 1 2891.5,1020.5 L1824.5,1020.5 A2.5,2.5 0 0 1 1822,1018 L1822,648.5 A2.5,2.5 0 0 1 1824.5,646 " fill="none" style="stroke:#000000;stroke-width:1.5;"/><line style="stroke:#000000;stroke-width:1.5;" x1="1822" x2="1973" y1="668.2969" y2="668.2969"/><text fill="#000000" font-family="sans-serif" font-size="14" font-weight="bold" lengthAdjust="spacing" textLength="138" x="1826" y="660.9951">Accounts service</text></g><!--entity Authorization--><g id="elem_Authorization"><rect fill="#F1F1F1" height="46.2969" rx="2.5" ry="2.5" style="stroke:#181818;stroke-width:0.5;" width="138" x="676" y="689"/><rect fill="#F1F1F1" height="10" style="stroke:#181818;stroke-width:0.5;" width="15" x="794" y="694"/><rect fill="#F1F1F1" height="2" style="stroke:#181818;stroke-width:0.5;" width="4" x="792" y="696"/><rect fill="#F1F1F1" height="2" style="stroke:#181818;stroke-width:0.5;" width="4" x="792" y="700"/><text fill="#000000" font-family="sans-serif" font-size="14" lengthAdjust="spacing" textLength="98" x="691" y="721.9951">Authorization</text></g><!--entity JWT--><g id="elem_JWT"><ellipse cx="787" cy="967.5" fill="#F1F1F1" rx="8" ry="8" style="stroke:#181818;stroke-width:0.5;"/><text fill="#000000" font-family="sans-serif" font-size="14" lengthAdjust="spacing" textLength="27" x="773.5" y="997.4951">JWT</text></g><!--entity Managment--><g id="elem_Managment"><rect fill="#F1F1F1" height="46.2969" rx="2.5" ry="2.5" style="stroke:#181818;stroke-width:0.5;" width="125" x="514.5" y="689"/><rect fill="#F1F1F1" height="10" style="stroke:#181818;stroke-width:0.5;" width="15" x="619.5" y="694"/><rect fill="#F1F1F1" height="2" style="stroke:#181818;stroke-width:0.5;" width="4" x="617.5" y="696"/><rect fill="#F1F1F1" height="2" style="stroke:#181818;stroke-width:0.5;" width="4" x="617.5" y="700"/><text fill="#000000" font-family="sans-serif" font-size="14" lengthAdjust="spacing" textLength="85" x="529.5" y="721.9951">Managment</text></g><!--entity CRUD user--><g id="elem_CRUD user"><ellipse cx="680" cy="967.5" fill="#F1F1F1" rx="8" ry="8" style="stroke:#181818;stroke-width:0.5;"/><text fill="#000000" font-family="sans-serif" font-size="14" lengthAdjust="spacing" textLength="74" x="643" y="997.4951">CRUD user</text></g><!--entity list of users--><g id="elem_list of users"><ellipse cx="551" cy="967.5" fill="#F1F1F1" rx="8" ry="8" style="stroke:#181818;stroke-width:0.5;"/><text fill="#000000" font-family="sans-serif" font-size="14" lengthAdjust="spacing" textLength="82" x="510" y="997.4951">list of users</text></g><g id="elem_user"><rect fill="#F1F1F1" height="101.4844" style="stroke:#181818;stroke-width:0.5;" width="211" x="1045.5" y="1302"/><text fill="#000000" font-family="sans-serif" font-size="14" lengthAdjust="spacing" textLength="30" x="1136" y="1316.9951">user</text><line style="stroke:#181818;stroke-width:1.0;" x1="1045.5" x2="1256.5" y1="1322.2969" y2="1322.2969"/><text fill="#000000" font-family="sans-serif" font-size="14" lengthAdjust="spacing" textLength="13" x="1095" y="1337.292">id</text><text fill="#000000" font-family="sans-serif" font-size="14" lengthAdjust="spacing" textLength="33" x="1162.5" y="1337.292">UUID</text><line style="stroke:#181818;stroke-width:1.0;" x1="1157.5" x2="1157.5" y1="1322.2969" y2="1342.5938"/><line style="stroke:#181818;stroke-width:1.0;" x1="1045.5" x2="1256.5" y1="1342.5938" y2="1342.5938"/><text fill="#000000" font-family="sans-serif" font-size="14" lengthAdjust="spacing" textLength="39" x="1082" y="1357.5889">email</text><text fill="#000000" font-family="sans-serif" font-size="14" lengthAdjust="spacing" textLength="89" x="1162.5" y="1357.5889">varchar[255]</text><line style="stroke:#181818;stroke-width:1.0;" x1="1157.5" x2="1157.5" y1="1342.5938" y2="1362.8906"/><line style="stroke:#181818;stroke-width:1.0;" x1="1045.5" x2="1256.5" y1="1362.8906" y2="1362.8906"/><text fill="#000000" font-family="sans-serif" font-size="14" lengthAdjust="spacing" textLength="63" x="1070" y="1377.8857">is_dealer</text><text fill="#000000" font-family="sans-serif" font-size="14" lengthAdjust="spacing" textLength="32" x="1162.5" y="1377.8857">bool</text><line style="stroke:#181818;stroke-width:1.0;" x1="1157.5" x2="1157.5" y1="1362.8906" y2="1383.1875"/><line style="stroke:#181818;stroke-width:1.0;" x1="1045.5" x2="1256.5" y1="1383.1875" y2="1383.1875"/><text fill="#000000" font-family="sans-serif" font-size="14" lengthAdjust="spacing" textLength="102" x="1050.5" y="1398.1826">update,create</text><text fill="#000000" font-family="sans-serif" font-size="14" lengthAdjust="spacing" textLength="33" x="1162.5" y="1398.1826">date</text><line style="stroke:#181818;stroke-width:1.0;" x1="1157.5" x2="1157.5" y1="1383.1875" y2="1403.4844"/></g><g id="elem_invoice"><rect fill="#F1F1F1" height="182.6719" style="stroke:#181818;stroke-width:0.5;" width="376" x="1152" y="374"/><text fill="#000000" font-family="sans-serif" font-size="14" lengthAdjust="spacing" textLength="51" x="1314.5" y="388.9951">invoice</text><line style="stroke:#181818;stroke-width:1.0;" x1="1152" x2="1528" y1="394.2969" y2="394.2969"/><text fill="#000000" font-family="sans-serif" font-size="14" lengthAdjust="spacing" textLength="13" x="1201.5" y="409.292">id</text><text fill="#000000" font-family="sans-serif" font-size="14" lengthAdjust="spacing" textLength="33" x="1269" y="409.292">UUID</text><line style="stroke:#181818;stroke-width:1.0;" x1="1264" x2="1264" y1="394.2969" y2="414.5938"/><line style="stroke:#181818;stroke-width:1.0;" x1="1152" x2="1528" y1="414.5938" y2="414.5938"/><text fill="#000000" font-family="sans-serif" font-size="14" lengthAdjust="spacing" textLength="61" x="1177.5" y="429.5889">issuer_id</text><text fill="#000000" font-family="sans-serif" font-size="14" lengthAdjust="spacing" textLength="33" x="1269" y="429.5889">UUID</text><line style="stroke:#181818;stroke-width:1.0;" x1="1264" x2="1264" y1="414.5938" y2="434.8906"/><line style="stroke:#181818;stroke-width:1.0;" x1="1152" x2="1528" y1="434.8906" y2="434.8906"/><text fill="#000000" font-family="sans-serif" font-size="14" lengthAdjust="spacing" textLength="82" x="1167" y="449.8857">description</text><text fill="#000000" font-family="sans-serif" font-size="14" lengthAdjust="spacing" textLength="31" x="1269" y="449.8857">text</text><line style="stroke:#181818;stroke-width:1.0;" x1="1264" x2="1264" y1="434.8906" y2="455.1875"/><line style="stroke:#181818;stroke-width:1.0;" x1="1152" x2="1528" y1="455.1875" y2="455.1875"/><text fill="#000000" font-family="sans-serif" font-size="14" lengthAdjust="spacing" textLength="52" x="1182" y="470.1826">volume</text><text fill="#000000" font-family="sans-serif" font-size="14" lengthAdjust="spacing" textLength="28" x="1269" y="470.1826">uint</text><line style="stroke:#181818;stroke-width:1.0;" x1="1264" x2="1264" y1="455.1875" y2="475.4844"/><line style="stroke:#181818;stroke-width:1.0;" x1="1152" x2="1528" y1="475.4844" y2="475.4844"/><text fill="#000000" font-family="sans-serif" font-size="14" lengthAdjust="spacing" textLength="60" x="1178" y="490.4795">quantity</text><text fill="#000000" font-family="sans-serif" font-size="14" lengthAdjust="spacing" textLength="28" x="1269" y="490.4795">uint</text><line style="stroke:#181818;stroke-width:1.0;" x1="1264" x2="1264" y1="475.4844" y2="495.7813"/><line style="stroke:#181818;stroke-width:1.0;" x1="1152" x2="1528" y1="495.7813" y2="495.7813"/><text fill="#000000" font-family="sans-serif" font-size="14" lengthAdjust="spacing" textLength="72" x="1172" y="510.7764">unit_price</text><text fill="#000000" font-family="sans-serif" font-size="14" lengthAdjust="spacing" textLength="49" x="1269" y="510.7764">money</text><line style="stroke:#181818;stroke-width:1.0;" x1="1264" x2="1264" y1="495.7813" y2="516.0781"/><line style="stroke:#181818;stroke-width:1.0;" x1="1152" x2="1528" y1="516.0781" y2="516.0781"/><text fill="#000000" font-family="sans-serif" font-size="14" lengthAdjust="spacing" textLength="44" x="1186" y="531.0732">status</text><text fill="#000000" font-family="sans-serif" font-size="14" lengthAdjust="spacing" textLength="254" x="1269" y="531.0732">ENUM[new, wait, decline, approved]</text><line style="stroke:#181818;stroke-width:1.0;" x1="1264" x2="1264" y1="516.0781" y2="536.375"/><line style="stroke:#181818;stroke-width:1.0;" x1="1152" x2="1528" y1="536.375" y2="536.375"/><text fill="#000000" font-family="sans-serif" font-size="14" lengthAdjust="spacing" textLength="102" x="1157" y="551.3701">update,create</text><text fill="#000000" font-family="sans-serif" font-size="14" lengthAdjust="spacing" textLength="33" x="1269" y="551.3701">date</text><line style="stroke:#181818;stroke-width:1.0;" x1="1264" x2="1264" y1="536.375" y2="556.6719"/></g><g id="elem_deal"><rect fill="#F1F1F1" height="142.0781" style="stroke:#181818;stroke-width:0.5;" width="155" x="1262.5" y="641"/><text fill="#000000" font-family="sans-serif" font-size="14" lengthAdjust="spacing" textLength="30" x="1325" y="655.9951">deal</text><line style="stroke:#181818;stroke-width:1.0;" x1="1262.5" x2="1417.5" y1="661.2969" y2="661.2969"/><text fill="#000000" font-family="sans-serif" font-size="14" lengthAdjust="spacing" textLength="13" x="1312" y="676.292">id</text><text fill="#000000" font-family="sans-serif" font-size="14" lengthAdjust="spacing" textLength="33" x="1379.5" y="676.292">UUID</text><line style="stroke:#181818;stroke-width:1.0;" x1="1374.5" x2="1374.5" y1="661.2969" y2="681.5938"/><line style="stroke:#181818;stroke-width:1.0;" x1="1262.5" x2="1417.5" y1="681.5938" y2="681.5938"/><text fill="#000000" font-family="sans-serif" font-size="14" lengthAdjust="spacing" textLength="79" x="1279" y="696.5889">investor_id</text><text fill="#000000" font-family="sans-serif" font-size="14" lengthAdjust="spacing" textLength="33" x="1379.5" y="696.5889">UUID</text><line style="stroke:#181818;stroke-width:1.0;" x1="1374.5" x2="1374.5" y1="681.5938" y2="701.8906"/><line style="stroke:#181818;stroke-width:1.0;" x1="1262.5" x2="1417.5" y1="701.8906" y2="701.8906"/><text fill="#000000" font-family="sans-serif" font-size="14" lengthAdjust="spacing" textLength="71" x="1283" y="716.8857">invoice_id</text><text fill="#000000" font-family="sans-serif" font-size="14" lengthAdjust="spacing" textLength="33" x="1379.5" y="716.8857">UUID</text><line style="stroke:#181818;stroke-width:1.0;" x1="1374.5" x2="1374.5" y1="701.8906" y2="722.1875"/><line style="stroke:#181818;stroke-width:1.0;" x1="1262.5" x2="1417.5" y1="722.1875" y2="722.1875"/><text fill="#000000" font-family="sans-serif" font-size="14" lengthAdjust="spacing" textLength="60" x="1288.5" y="737.1826">quantity</text><text fill="#000000" font-family="sans-serif" font-size="14" lengthAdjust="spacing" textLength="28" x="1379.5" y="737.1826">uint</text><line style="stroke:#181818;stroke-width:1.0;" x1="1374.5" x2="1374.5" y1="722.1875" y2="742.4844"/><line style="stroke:#181818;stroke-width:1.0;" x1="1262.5" x2="1417.5" y1="742.4844" y2="742.4844"/><text fill="#000000" font-family="sans-serif" font-size="14" lengthAdjust="spacing" textLength="102" x="1267.5" y="757.4795">transaction_id</text><text fill="#000000" font-family="sans-serif" font-size="14" lengthAdjust="spacing" textLength="33" x="1379.5" y="757.4795">UUID</text><line style="stroke:#181818;stroke-width:1.0;" x1="1374.5" x2="1374.5" y1="742.4844" y2="762.7813"/><line style="stroke:#181818;stroke-width:1.0;" x1="1262.5" x2="1417.5" y1="762.7813" y2="762.7813"/><text fill="#000000" font-family="sans-serif" font-size="14" lengthAdjust="spacing" textLength="102" x="1267.5" y="777.7764">update,create</text><text fill="#000000" font-family="sans-serif" font-size="14" lengthAdjust="spacing" textLength="33" x="1379.5" y="777.7764">date</text><line style="stroke:#181818;stroke-width:1.0;" x1="1374.5" x2="1374.5" y1="762.7813" y2="783.0781"/></g><g id="elem_account"><rect fill="#F1F1F1" height="121.7813" style="stroke:#181818;stroke-width:0.5;" width="171" x="1341.5" y="907"/><text fill="#000000" font-family="sans-serif" font-size="14" lengthAdjust="spacing" textLength="57" x="1398.5" y="921.9951">account</text><line style="stroke:#181818;stroke-width:1.0;" x1="1341.5" x2="1512.5" y1="927.2969" y2="927.2969"/><text fill="#000000" font-family="sans-serif" font-size="14" lengthAdjust="spacing" textLength="13" x="1391" y="942.292">id</text><text fill="#000000" font-family="sans-serif" font-size="14" lengthAdjust="spacing" textLength="33" x="1458.5" y="942.292">UUID</text><line style="stroke:#181818;stroke-width:1.0;" x1="1453.5" x2="1453.5" y1="927.2969" y2="947.5938"/><line style="stroke:#181818;stroke-width:1.0;" x1="1341.5" x2="1512.5" y1="947.5938" y2="947.5938"/><text fill="#000000" font-family="sans-serif" font-size="14" lengthAdjust="spacing" textLength="50" x="1372.5" y="962.5889">user_id</text><text fill="#000000" font-family="sans-serif" font-size="14" lengthAdjust="spacing" textLength="33" x="1458.5" y="962.5889">UUID</text><line style="stroke:#181818;stroke-width:1.0;" x1="1453.5" x2="1453.5" y1="947.5938" y2="967.8906"/><line style="stroke:#181818;stroke-width:1.0;" x1="1341.5" x2="1512.5" y1="967.8906" y2="967.8906"/><text fill="#000000" font-family="sans-serif" font-size="14" lengthAdjust="spacing" textLength="32" x="1381.5" y="982.8857">cash</text><text fill="#000000" font-family="sans-serif" font-size="14" lengthAdjust="spacing" textLength="49" x="1458.5" y="982.8857">money</text><line style="stroke:#181818;stroke-width:1.0;" x1="1453.5" x2="1453.5" y1="967.8906" y2="988.1875"/><line style="stroke:#181818;stroke-width:1.0;" x1="1341.5" x2="1512.5" y1="988.1875" y2="988.1875"/><text fill="#000000" font-family="sans-serif" font-size="14" lengthAdjust="spacing" textLength="45" x="1375" y="1003.1826">equity</text><text fill="#000000" font-family="sans-serif" font-size="14" lengthAdjust="spacing" textLength="49" x="1458.5" y="1003.1826">money</text><line style="stroke:#181818;stroke-width:1.0;" x1="1453.5" x2="1453.5" y1="988.1875" y2="1008.4844"/><line style="stroke:#181818;stroke-width:1.0;" x1="1341.5" x2="1512.5" y1="1008.4844" y2="1008.4844"/><text fill="#000000" font-family="sans-serif" font-size="14" lengthAdjust="spacing" textLength="102" x="1346.5" y="1023.4795">update,create</text><text fill="#000000" font-family="sans-serif" font-size="14" lengthAdjust="spacing" textLength="33" x="1458.5" y="1023.4795">date</text><line style="stroke:#181818;stroke-width:1.0;" x1="1453.5" x2="1453.5" y1="1008.4844" y2="1028.7813"/></g><g id="elem_transaction"><rect fill="#F1F1F1" height="121.7813" style="stroke:#181818;stroke-width:0.5;" width="356" x="934" y="907"/><text fill="#000000" font-family="sans-serif" font-size="14" lengthAdjust="spacing" textLength="82" x="1071" y="921.9951">transaction</text><line style="stroke:#181818;stroke-width:1.0;" x1="934" x2="1290" y1="927.2969" y2="927.2969"/><text fill="#000000" font-family="sans-serif" font-size="14" lengthAdjust="spacing" textLength="13" x="992" y="942.292">id</text><text fill="#000000" font-family="sans-serif" font-size="14" lengthAdjust="spacing" textLength="33" x="1068" y="942.292">UUID</text><line style="stroke:#181818;stroke-width:1.0;" x1="1063" x2="1063" y1="927.2969" y2="947.5938"/><line style="stroke:#181818;stroke-width:1.0;" x1="934" x2="1290" y1="947.5938" y2="947.5938"/><text fill="#000000" font-family="sans-serif" font-size="14" lengthAdjust="spacing" textLength="119" x="939" y="962.5889">from_account_id</text><text fill="#000000" font-family="sans-serif" font-size="14" lengthAdjust="spacing" textLength="33" x="1068" y="962.5889">UUID</text><line style="stroke:#181818;stroke-width:1.0;" x1="1063" x2="1063" y1="947.5938" y2="967.8906"/><line style="stroke:#181818;stroke-width:1.0;" x1="934" x2="1290" y1="967.8906" y2="967.8906"/><text fill="#000000" font-family="sans-serif" font-size="14" lengthAdjust="spacing" textLength="100" x="948.5" y="982.8857">to_account_id</text><text fill="#000000" font-family="sans-serif" font-size="14" lengthAdjust="spacing" textLength="33" x="1068" y="982.8857">UUID</text><line style="stroke:#181818;stroke-width:1.0;" x1="1063" x2="1063" y1="967.8906" y2="988.1875"/><line style="stroke:#181818;stroke-width:1.0;" x1="934" x2="1290" y1="988.1875" y2="988.1875"/><text fill="#000000" font-family="sans-serif" font-size="14" lengthAdjust="spacing" textLength="44" x="976.5" y="1003.1826">status</text><text fill="#000000" font-family="sans-serif" font-size="14" lengthAdjust="spacing" textLength="217" x="1068" y="1003.1826">ENUM[new, decline, complete]</text><line style="stroke:#181818;stroke-width:1.0;" x1="1063" x2="1063" y1="988.1875" y2="1008.4844"/><line style="stroke:#181818;stroke-width:1.0;" x1="934" x2="1290" y1="1008.4844" y2="1008.4844"/><text fill="#000000" font-family="sans-serif" font-size="14" lengthAdjust="spacing" textLength="102" x="947.5" y="1023.4795">update,create</text><text fill="#000000" font-family="sans-serif" font-size="14" lengthAdjust="spacing" textLength="33" x="1068" y="1023.4795">date</text><line style="stroke:#181818;stroke-width:1.0;" x1="1063" x2="1063" y1="1008.4844" y2="1028.7813"/></g><g id="elem_issuer"><rect fill="#F1F1F1" height="81.1875" style="stroke:#181818;stroke-width:0.5;" width="130" x="1513" y="1097"/><text fill="#000000" font-family="sans-serif" font-size="14" lengthAdjust="spacing" textLength="41" x="1557.5" y="1111.9951">issuer</text><line style="stroke:#181818;stroke-width:1.0;" x1="1513" x2="1643" y1="1117.2969" y2="1117.2969"/><text fill="#000000" font-family="sans-serif" font-size="14" lengthAdjust="spacing" textLength="13" x="1550" y="1132.292">id</text><text fill="#000000" font-family="sans-serif" font-size="14" lengthAdjust="spacing" textLength="33" x="1605" y="1132.292">UUID</text><line style="stroke:#181818;stroke-width:1.0;" x1="1600" x2="1600" y1="1117.2969" y2="1137.5938"/><line style="stroke:#181818;stroke-width:1.0;" x1="1513" x2="1643" y1="1137.5938" y2="1137.5938"/><text fill="#000000" font-family="sans-serif" font-size="14" lengthAdjust="spacing" textLength="77" x="1518" y="1152.5889">account_id</text><text fill="#000000" font-family="sans-serif" font-size="14" lengthAdjust="spacing" textLength="33" x="1605" y="1152.5889">UUID</text><line style="stroke:#181818;stroke-width:1.0;" x1="1600" x2="1600" y1="1137.5938" y2="1157.8906"/><line style="stroke:#181818;stroke-width:1.0;" x1="1513" x2="1643" y1="1157.8906" y2="1157.8906"/><text fill="#000000" font-family="sans-serif" font-size="14" lengthAdjust="spacing" textLength="66" x="1523.5" y="1172.8857">company</text><text fill="#000000" font-family="sans-serif" font-size="14" lengthAdjust="spacing" textLength="31" x="1605" y="1172.8857">text</text><line style="stroke:#181818;stroke-width:1.0;" x1="1600" x2="1600" y1="1157.8906" y2="1178.1875"/></g><g id="elem_investor"><rect fill="#F1F1F1" height="81.1875" style="stroke:#181818;stroke-width:0.5;" width="130" x="1564" y="927"/><text fill="#000000" font-family="sans-serif" font-size="14" lengthAdjust="spacing" textLength="59" x="1599.5" y="941.9951">investor</text><line style="stroke:#181818;stroke-width:1.0;" x1="1564" x2="1694" y1="947.2969" y2="947.2969"/><text fill="#000000" font-family="sans-serif" font-size="14" lengthAdjust="spacing" textLength="13" x="1601" y="962.292">id</text><text fill="#000000" font-family="sans-serif" font-size="14" lengthAdjust="spacing" textLength="33" x="1656" y="962.292">UUID</text><line style="stroke:#181818;stroke-width:1.0;" x1="1651" x2="1651" y1="947.2969" y2="967.5938"/><line style="stroke:#181818;stroke-width:1.0;" x1="1564" x2="1694" y1="967.5938" y2="967.5938"/><text fill="#000000" font-family="sans-serif" font-size="14" lengthAdjust="spacing" textLength="77" x="1569" y="982.5889">account_id</text><text fill="#000000" font-family="sans-serif" font-size="14" lengthAdjust="spacing" textLength="33" x="1656" y="982.5889">UUID</text><line style="stroke:#181818;stroke-width:1.0;" x1="1651" x2="1651" y1="967.5938" y2="987.8906"/><line style="stroke:#181818;stroke-width:1.0;" x1="1564" x2="1694" y1="987.8906" y2="987.8906"/><text fill="#000000" font-family="sans-serif" font-size="14" lengthAdjust="spacing" textLength="23" x="1596" y="1002.8857">vat</text><text fill="#000000" font-family="sans-serif" font-size="14" lengthAdjust="spacing" textLength="31" x="1656" y="1002.8857">text</text><line style="stroke:#181818;stroke-width:1.0;" x1="1651" x2="1651" y1="987.8906" y2="1008.1875"/></g><!--entity Manage invoice--><g id="elem_Manage invoice"><rect fill="#F1F1F1" height="46.2969" rx="2.5" ry="2.5" style="stroke:#181818;stroke-width:0.5;" width="150" x="645" y="49"/><rect fill="#F1F1F1" height="10" style="stroke:#181818;stroke-width:0.5;" width="15" x="775" y="54"/><rect fill="#F1F1F1" height="2" style="stroke:#181818;stroke-width:0.5;" width="4" x="773" y="56"/><rect fill="#F1F1F1" height="2" style="stroke:#181818;stroke-width:0.5;" width="4" x="773" y="60"/><text fill="#000000" font-family="sans-serif" font-size="14" lengthAdjust="spacing" textLength="110" x="660" y="81.9951">Manage invoice</text></g><!--entity Create an invoice (user_id)--><g id="elem_Create an invoice (user_id)"><ellipse cx="630" cy="185" fill="#F1F1F1" rx="8" ry="8" style="stroke:#181818;stroke-width:0.5;"/><text fill="#000000" font-family="sans-serif" font-size="14" lengthAdjust="spacing" textLength="189" x="535.5" y="214.9951">Create an invoice (user_id)</text></g><!--entity Retrieve an invoice (invoice_id)--><g id="elem_Retrieve an invoice (invoice_id)"><ellipse cx="687" cy="465" fill="#F1F1F1" rx="8" ry="8" style="stroke:#181818;stroke-width:0.5;"/><text fill="#000000" font-family="sans-serif" font-size="14" lengthAdjust="spacing" textLength="223" x="575.5" y="494.9951">Retrieve an invoice (invoice_id)</text></g><!--entity Place a bid (investor_id)--><g id="elem_Place a bid (investor_id)"><ellipse cx="440" cy="465" fill="#F1F1F1" rx="8" ry="8" style="stroke:#181818;stroke-width:0.5;"/><text fill="#000000" font-family="sans-serif" font-size="14" lengthAdjust="spacing" textLength="170" x="355" y="494.9951">Place a bid (investor_id)</text></g><!--entity Execution--><g id="elem_Execution"><rect fill="#F1F1F1" height="46.2969" rx="2.5" ry="2.5" style="stroke:#181818;stroke-width:0.5;" width="111" x="175.5" y="49"/><rect fill="#F1F1F1" height="10" style="stroke:#181818;stroke-width:0.5;" width="15" x="266.5" y="54"/><rect fill="#F1F1F1" height="2" style="stroke:#181818;stroke-width:0.5;" width="4" x="264.5" y="56"/><rect fill="#F1F1F1" height="2" style="stroke:#181818;stroke-width:0.5;" width="4" x="264.5" y="60"/><text fill="#000000" font-family="sans-serif" font-size="14" lengthAdjust="spacing" textLength="71" x="190.5" y="81.9951">Execution</text></g><!--entity Approve a trade (invoice_id)--><g id="elem_Approve a trade (invoice_id)"><ellipse cx="384" cy="185" fill="#F1F1F1" rx="8" ry="8" style="stroke:#181818;stroke-width:0.5;"/><text fill="#000000" font-family="sans-serif" font-size="14" lengthAdjust="spacing" textLength="202" x="283" y="214.9951">Approve a trade (invoice_id)</text></g><!--entity Decline a trade (invoice_id)--><g id="elem_Decline a trade (invoice_id)"><ellipse cx="135" cy="185" fill="#F1F1F1" rx="8" ry="8" style="stroke:#181818;stroke-width:0.5;"/><text fill="#000000" font-family="sans-serif" font-size="14" lengthAdjust="spacing" textLength="194" x="38" y="214.9951">Decline a trade (invoice_id)</text></g><!--entity Balances--><g id="elem_Balances"><rect fill="#F1F1F1" height="46.2969" rx="2.5" ry="2.5" style="stroke:#181818;stroke-width:0.5;" width="103" x="2655.5" y="689"/><rect fill="#F1F1F1" height="10" style="stroke:#181818;stroke-width:0.5;" width="15" x="2738.5" y="694"/><rect fill="#F1F1F1" height="2" style="stroke:#181818;stroke-width:0.5;" width="4" x="2736.5" y="696"/><rect fill="#F1F1F1" height="2" style="stroke:#181818;stroke-width:0.5;" width="4" x="2736.5" y="700"/><text fill="#000000" font-family="sans-serif" font-size="14" lengthAdjust="spacing" textLength="63" x="2670.5" y="721.9951">Balances</text></g><!--entity Read balance--><g id="elem_Read balance"><ellipse cx="2707" cy="967.5" fill="#F1F1F1" rx="8" ry="8" style="stroke:#181818;stroke-width:0.5;"/><text fill="#000000" font-family="sans-serif" font-size="14" lengthAdjust="spacing" textLength="96" x="2659" y="997.4951">Read balance</text></g><!--entity Deposit--><g id="elem_Deposit"><ellipse cx="2834" cy="967.5" fill="#F1F1F1" rx="8" ry="8" style="stroke:#181818;stroke-width:0.5;"/><text fill="#000000" font-family="sans-serif" font-size="14" lengthAdjust="spacing" textLength="57" x="2805.5" y="997.4951">Deposit</text></g><!--entity Withdrawal--><g id="elem_Withdrawal"><ellipse cx="2568" cy="967.5" fill="#F1F1F1" rx="8" ry="8" style="stroke:#181818;stroke-width:0.5;"/><text fill="#000000" font-family="sans-serif" font-size="14" lengthAdjust="spacing" textLength="80" x="2528" y="997.4951">Withdrawal</text></g><!--entity Transactions--><g id="elem_Transactions"><rect fill="#F1F1F1" height="46.2969" rx="2.5" ry="2.5" style="stroke:#181818;stroke-width:0.5;" width="131" x="2220.5" y="689"/><rect fill="#F1F1F1" height="10" style="stroke:#181818;stroke-width:0.5;" width="15" x="2331.5" y="694"/><rect fill="#F1F1F1" height="2" style="stroke:#181818;stroke-width:0.5;" width="4" x="2329.5" y="696"/><rect fill="#F1F1F1" height="2" style="stroke:#181818;stroke-width:0.5;" width="4" x="2329.5" y="700"/><text fill="#000000" font-family="sans-serif" font-size="14" lengthAdjust="spacing" textLength="91" x="2235.5" y="721.9951">Transactions</text></g><!--entity Create transaction--><g id="elem_Create transaction"><ellipse cx="2241" cy="967.5" fill="#F1F1F1" rx="8" ry="8" style="stroke:#181818;stroke-width:0.5;"/><text fill="#000000" font-family="sans-serif" font-size="14" lengthAdjust="spacing" textLength="135" x="2173.5" y="997.4951">Create transaction</text></g><!--entity Approve,decline--><g id="elem_Approve,decline"><ellipse cx="2418" cy="967.5" fill="#F1F1F1" rx="8" ry="8" style="stroke:#181818;stroke-width:0.5;"/><text fill="#000000" font-family="sans-serif" font-size="14" lengthAdjust="spacing" textLength="118" x="2359" y="997.4951">Approve,decline</text></g><!--entity Accounts--><g id="elem_Accounts"><rect fill="#F1F1F1" height="46.2969" rx="2.5" ry="2.5" style="stroke:#181818;stroke-width:0.5;" width="106" x="1920" y="689"/><rect fill="#F1F1F1" height="10" style="stroke:#181818;stroke-width:0.5;" width="15" x="2006" y="694"/><rect fill="#F1F1F1" height="2" style="stroke:#181818;stroke-width:0.5;" width="4" x="2004" y="696"/><rect fill="#F1F1F1" height="2" style="stroke:#181818;stroke-width:0.5;" width="4" x="2004" y="700"/><text fill="#000000" font-family="sans-serif" font-size="14" lengthAdjust="spacing" textLength="66" x="1935" y="721.9951">Accounts</text></g><!--entity CRUD account--><g id="elem_CRUD account"><ellipse cx="1912" cy="967.5" fill="#F1F1F1" rx="8" ry="8" style="stroke:#181818;stroke-width:0.5;"/><text fill="#000000" font-family="sans-serif" font-size="14" lengthAdjust="spacing" textLength="101" x="1861.5" y="997.4951">CRUD account</text></g><!--entity list of investors--><g id="elem_list of investors"><ellipse cx="2068" cy="967.5" fill="#F1F1F1" rx="8" ry="8" style="stroke:#181818;stroke-width:0.5;"/><text fill="#000000" font-family="sans-serif" font-size="14" lengthAdjust="spacing" textLength="111" x="2012.5" y="997.4951">list of investors</text></g><!--link Authorization to JWT--><g id="link_Authorization_JWT"><path d="M748.654,735.053 C757.515,788.537 779.844,923.311 785.619,958.167 " fill="none" id="Authorization-JWT" style="stroke:#181818;stroke-width:1.0;"/></g><!--link Managment to CRUD user--><g id="link_Managment_CRUD user"><path d="M585.96,735.053 C607.691,788.537 662.452,923.311 676.614,958.167 " fill="none" id="Managment-CRUD user" style="stroke:#181818;stroke-width:1.0;"/></g><!--link Managment to list of users--><g id="link_Managment_list of users"><path d="M574.738,735.053 C569.253,788.537 555.43,923.311 551.855,958.167 " fill="none" id="Managment-list of users" style="stroke:#181818;stroke-width:1.0;"/></g><!--link Users service to Users schema--><g id="link_Users service_Users schema"><path d="M469.7929,743.2777 C469.6457,743.8883 469.4976,744.5068 469.3487,745.133 C469.0507,746.3855 468.7493,747.6691 468.4451,748.9829 C463.578,770.0033 458.0061,798.7399 454.7066,831.1185 C448.1078,895.8758 450.599,975.201 486,1036.5 C552.6615,1151.9285 680.174,1230.3545 791.7561,1280.0835 C847.5472,1304.948 899.3557,1322.6383 937.5839,1334.1924 C956.698,1339.9695 972.417,1344.2126 983.5413,1347.0514 C986.3223,1347.7612 988.8162,1348.3831 991.0042,1348.9193 C991.5512,1349.0534 992.0791,1349.182 992.5875,1349.3054 C992.8417,1349.3671 993.0911,1349.4274 993.3356,1349.4865 " fill="none" id="Users service-to-Users schema" style="stroke:#181818;stroke-width:1.0;"/><polygon fill="#181818" points="993.3356,1349.4865,985.5256,1343.4861,988.4752,1348.3131,983.6482,1351.2627,993.3356,1349.4865" style="stroke:#181818;stroke-width:1.0;"/></g><!--link Manage invoice to Create an invoice (user_id)--><g id="link_Manage invoice_Create an invoice (user_id)"><path d="M702.003,95.2 C681.792,120.12 650.048,159.27 636.49,176 " fill="none" id="Manage invoice-Create an invoice (user_id)" style="stroke:#181818;stroke-width:1.0;"/></g><!--link Manage invoice to Retrieve an invoice (invoice_id)--><g id="link_Manage invoice_Retrieve an invoice (invoice_id)"><path d="M753.181,95.02 C762.688,103.2 771.862,113.36 777,125 C798.534,173.79 787.332,192.68 777,245 C759.879,331.7 708.035,427.24 691.869,455.62 " fill="none" id="Manage invoice-Retrieve an invoice (invoice_id)" style="stroke:#181818;stroke-width:1.0;"/></g><!--link Manage invoice to Place a bid (investor_id)--><g id="link_Manage invoice_Place a bid (investor_id)"><path d="M734.611,95.24 C752.486,125.52 777.111,179.85 749,214 C691.726,283.59 622.189,199.04 550,253 C477.204,307.41 448.288,424.13 441.595,455.88 " fill="none" id="Manage invoice-Place a bid (investor_id)" style="stroke:#181818;stroke-width:1.0;"/></g><!--link Execution to Approve a trade (invoice_id)--><g id="link_Execution_Approve a trade (invoice_id)"><path d="M261.594,95.2 C297,120.88 353.223,161.67 374.985,177.46 " fill="none" id="Execution-Approve a trade (invoice_id)" style="stroke:#181818;stroke-width:1.0;"/></g><!--link Execution to Decline a trade (invoice_id)--><g id="link_Execution_Decline a trade (invoice_id)"><path d="M211.804,95.2 C190.245,120.12 156.385,159.27 141.923,176 " fill="none" id="Execution-Decline a trade (invoice_id)" style="stroke:#181818;stroke-width:1.0;"/></g><!--reverse link Place a bid (investor_id) to Users service--><g id="link_Place a bid (investor_id)_Users service"><path d="M442.031,479.096 C445.906,504.0775 454.6722,560.5963 462.58,611.5806 C464.5569,624.3267 466.4802,636.7269 468.26,648.202 C468.705,651.0707 469.1409,653.8817 469.5665,656.6257 C469.6729,657.3118 469.7787,657.9936 469.8838,658.6711 " fill="none" id="Place a bid (investor_id)-backto-Users service" style="stroke:#181818;stroke-width:1.0;stroke-dasharray:7.0,7.0;"/><polygon fill="#181818" points="441.264,474.15,438.7028,483.66,442.0366,479.0899,446.6067,482.4238,441.264,474.15" style="stroke:#181818;stroke-width:1.0;"/><text fill="#000000" font-family="sans-serif" font-size="13" lengthAdjust="spacing" textLength="34" x="463" y="603.0669">client</text></g><!--reverse link Retrieve an invoice (invoice_id) to Users service--><g id="link_Retrieve an invoice (invoice_id)_Users service"><path d="M673.844,475.8 C630.977,507.841 497.425,608.705 486,630 C483.929,633.8601 482.2423,637.9731 480.8771,642.2212 C480.5358,643.2832 480.2146,644.3537 479.9125,645.4307 C479.8748,645.5653 479.8373,645.7001 479.8002,645.8349 " fill="none" id="Retrieve an invoice (invoice_id)-backto-Users service" style="stroke:#181818;stroke-width:1.0;stroke-dasharray:7.0,7.0;"/><polygon fill="#181818" points="677.931,472.74,668.3248,474.9126,673.9225,475.7286,673.1065,481.3263,677.931,472.74" style="stroke:#181818;stroke-width:1.0;"/><text fill="#000000" font-family="sans-serif" font-size="13" lengthAdjust="spacing" textLength="34" x="527" y="603.0669">client</text></g><!--link Ledger service to Invoice schema--><g id="link_Ledger service_Invoice schema"><path d="M838.4174,84.7958 C838.6172,85.0759 838.8204,85.3606 839.0267,85.6498 C839.4395,86.2283 839.8651,86.8249 840.3035,87.4392 C841.1802,88.668 842.1077,89.9678 843.084,91.336 C850.8938,102.2814 861.8225,117.5977 874.8305,135.828 C900.8464,172.2884 935.1791,220.4044 969.511,268.5187 C1003.8429,316.6331 1038.1739,364.7459 1064.1863,401.2002 C1077.1925,419.4273 1088.119,434.7397 1095.9262,445.6804 C1096.9021,447.048 1097.8293,448.3473 1098.7057,449.5754 C1099.1439,450.1895 1099.5694,450.7857 1099.9819,451.3639 C1100.1882,451.6529 1100.3912,451.9374 1100.591,452.2174 C1100.6909,452.3574 1100.79,452.4962 1100.8882,452.6339 " fill="none" id="Ledger service-to-Invoice schema" style="stroke:#181818;stroke-width:1.0;"/><polygon fill="#181818" points="1100.8882,452.6339,1098.9163,442.9844,1097.9839,448.5639,1092.4044,447.6314,1100.8882,452.6339" style="stroke:#181818;stroke-width:1.0;"/></g><!--link Balances to Read balance--><g id="link_Balances_Read balance"><path d="M2707,735.053 C2707,788.537 2707,923.311 2707,958.167 " fill="none" id="Balances-Read balance" style="stroke:#181818;stroke-width:1.0;"/></g><!--link Balances to Deposit--><g id="link_Balances_Deposit"><path d="M2720.57,735.327 C2736.01,761.092 2761.58,804.937 2781,844 C2801.94,886.124 2823,938.47 2830.82,958.339 " fill="none" id="Balances-Deposit" style="stroke:#181818;stroke-width:1.0;"/></g><!--link Balances to Withdrawal--><g id="link_Balances_Withdrawal"><path d="M2694.5,735.198 C2679.89,761.211 2655.02,805.641 2634,844 C2610.43,887.006 2582.74,938.835 2572.29,958.452 " fill="none" id="Balances-Withdrawal" style="stroke:#181818;stroke-width:1.0;"/></g><!--link Transactions to Create transaction--><g id="link_Transactions_Create transaction"><path d="M2282.09,735.053 C2272.59,788.537 2248.67,923.311 2242.48,958.167 " fill="none" id="Transactions-Create transaction" style="stroke:#181818;stroke-width:1.0;"/></g><!--link Transactions to Approve,decline--><g id="link_Transactions_Approve,decline"><path d="M2297.48,735.053 C2325.33,788.537 2395.51,923.311 2413.66,958.167 " fill="none" id="Transactions-Approve,decline" style="stroke:#181818;stroke-width:1.0;"/></g><!--link Accounts to CRUD account--><g id="link_Accounts_CRUD account"><path d="M1967.69,735.053 C1954.82,788.537 1922.39,923.311 1914.01,958.167 " fill="none" id="Accounts-CRUD account" style="stroke:#181818;stroke-width:1.0;"/></g><!--link Accounts to list of investors--><g id="link_Accounts_list of investors"><path d="M1981.26,735.053 C2001.31,788.537 2051.81,923.311 2064.88,958.167 " fill="none" id="Accounts-list of investors" style="stroke:#181818;stroke-width:1.0;"/></g><!--link Accounts service to Accounts schema--><g id="link_Accounts service_Accounts schema"><path d="M1821.9717,734.8763 C1821.8658,735.1651 1821.7589,735.4563 1821.6512,735.7499 C1821.4358,736.3371 1821.217,736.9338 1820.9947,737.5396 C1819.2167,742.3866 1817.2221,747.8239 1815.0542,753.7335 C1806.3828,777.3721 1794.9394,808.5674 1783.4963,839.7618 C1772.0531,870.9561 1760.6103,902.1496 1751.9402,925.7843 C1749.7726,931.693 1747.7784,937.1293 1746.0007,941.9751 C1745.7785,942.5808 1745.5597,943.1773 1745.3444,943.7643 C1745.2367,944.0579 1745.1299,944.349 1745.0239,944.6378 " fill="none" id="Accounts service-to-Accounts schema" style="stroke:#181818;stroke-width:1.0;"/><polygon fill="#181818" points="1745.0239,944.6378,1751.8788,937.566,1746.7459,939.9437,1744.3683,934.8108,1745.0239,944.6378" style="stroke:#181818;stroke-width:1.0;"/></g><!--reverse link transaction to account--><g id="link_transaction_account"><path d="M1311.32,967.5 C1318.67,967.5 1326.01,967.5 1333.35,967.5 " fill="none" id="transaction-backto-account" style="stroke:#181818;stroke-width:1.0;"/><polygon fill="#181818" points="1298.11,967.5,1304.11,971.5,1310.11,967.5,1304.11,963.5,1298.11,967.5" style="stroke:#181818;stroke-width:1.0;"/></g><!--reverse link account to issuer--><g id="link_account_issuer"><path d="M1497.52,1046.956 C1511.67,1062.701 1526.05,1078.706 1538.67,1092.747 " fill="none" id="account-backto-issuer" style="stroke:#181818;stroke-width:1.0;"/><polygon fill="none" points="1492.25,1051.568,1484.09,1032.014,1502.66,1042.209,1492.25,1051.568" style="stroke:#181818;stroke-width:1.0;"/></g><!--reverse link account to investor--><g id="link_account_investor"><path d="M1540.57,967.5 C1545.6,967.5 1550.64,967.5 1555.68,967.5 " fill="none" id="account-backto-investor" style="stroke:#181818;stroke-width:1.0;"/><polygon fill="none" points="1540.5,974.5,1520.5,967.5,1540.5,960.5,1540.5,974.5" style="stroke:#181818;stroke-width:1.0;"/></g><!--link invoice to deal--><g id="link_invoice_deal"><path d="M1340,560.023 C1340,580.834 1340,602.805 1340,623.35 " fill="none" id="invoice-to-deal" style="stroke:#181818;stroke-width:1.0;"/><polygon fill="#181818" points="1340,636.619,1344,630.619,1340,624.619,1336,630.619,1340,636.619" style="stroke:#181818;stroke-width:1.0;"/></g><!--link invoice to issuer--><g id="link_invoice_issuer"><path d="M1506.48,567.849 C1597.77,633.959 1702.41,729.125 1753,844 C1787.48,922.3 1795.94,962.502 1753,1036.5 C1733.36,1070.342 1697.49,1093.698 1663.32,1109.273 " fill="none" id="invoice-issuer" style="stroke:#181818;stroke-width:1.0;stroke-dasharray:7.0,7.0;"/><polygon fill="#181818" points="1495.7,560.134,1498.2484,566.8798,1505.4554,567.1219,1502.907,560.3762,1495.7,560.134" style="stroke:#181818;stroke-width:1.0;"/><polygon fill="#181818" points="1651.33,1114.462,1661.1784,1114.5525,1655.9175,1112.4734,1657.9967,1107.2125,1651.33,1114.462" style="stroke:#181818;stroke-width:1.0;"/><line style="stroke:#181818;stroke-width:1.0;" x1="1655.9175" x2="1663.26" y1="1112.4734" y2="1109.2975"/></g><!--link deal to investor--><g id="link_deal_investor"><path d="M1437,767.676 C1470.85,789.142 1507.89,815.481 1538,844 C1559.16,864.039 1578.94,889.474 1594.61,911.968 " fill="none" id="deal-investor" style="stroke:#181818;stroke-width:1.0;stroke-dasharray:7.0,7.0;"/><polygon fill="#181818" points="1425.65,760.587,1428.6138,767.1609,1435.8219,766.9535,1432.8581,760.3796,1425.65,760.587" style="stroke:#181818;stroke-width:1.0;"/><polygon fill="#181818" points="1601.97,922.738,1600.1956,913.0503,1599.1494,918.6096,1593.5901,917.5633,1601.97,922.738" style="stroke:#181818;stroke-width:1.0;"/><line style="stroke:#181818;stroke-width:1.0;" x1="1599.1494" x2="1594.635" y1="918.6096" y2="912.0025"/></g><!--link deal to transaction--><g id="link_deal_transaction"><path d="M1264.4,797.053 C1236.57,827.997 1205.28,862.786 1178.33,892.754 " fill="none" id="deal-transaction" style="stroke:#181818;stroke-width:1.0;stroke-dasharray:7.0,7.0;"/><polygon fill="#181818" points="1273.44,787.004,1266.4541,788.7919,1265.4175,795.9281,1272.4035,794.1402,1273.44,787.004" style="stroke:#181818;stroke-width:1.0;"/><polygon fill="#181818" points="1169.36,902.719,1178.3542,898.7059,1172.7051,899.0028,1172.4083,893.3537,1169.36,902.719" style="stroke:#181818;stroke-width:1.0;"/><line style="stroke:#181818;stroke-width:1.0;" x1="1172.7051" x2="1178.06" y1="899.0028" y2="893.0535"/></g><!--link account to user--><g id="link_account_user"><path d="M1381.11,1032.175 C1331.52,1100.999 1252.71,1210.364 1201.41,1281.543 " fill="none" id="account-to-user" style="stroke:#181818;stroke-width:1.0;stroke-dasharray:7.0,7.0;"/><polygon fill="none" points="1207.01,1285.752,1189.64,1297.885,1195.65,1277.567,1207.01,1285.752" style="stroke:#181818;stroke-width:1.0;"/></g><!--SRC=[dLNBRjim4BppAmXTsWQs0XJ89KWDf7KEAPeY26BaO0J6cjhOH2bI8IadQUj_BqbHjYnPhjk37vhXSb-pgtTBQmjpVdfQ292sp4NAL7xgFeMIAEqmux3Ga1DI0Fi12wJ9nA0sr7sjECE4_YAKJYzBkrIQ_mJBbNoamo5DlZxS9vww0GcBt5rLmL_k9cDQEkjzfE36KlKKU9EGDI4PM9Y3SMvlbR4BZUPPL3wVbCXGRy9XIyoXOYZDeGXtn4TAUKO_ZUXaSZsEW3lCXSTMeDaIzFJZsTbZVTZCCWJXp1q_Lqf4l2nSD3XW6jsFv_nZuDR4VzPakbCRdzEe5I1f5F8RPWldPBUIeI98kLofU8MhMUKHP0tJzpwx6Sy-9FjjdD4TMirnjMiM_nosl1NWpWATkwfv2pHMRPrTlI8hjss-B0gjl1TgDMHxNBJEZv49BllEkuuVS4ylqhIjltDtdTCF-Nk-XwoFqDbrlBEhjDfRhzYuCMLeLmlFq33D2rySprXyjP5PAL7cGMCbbpNuNBe9vVQj1PUIsrcXVGIEoDtOlaN6MB2byUZLzydDLEBBWBu0jmFdENHXGA5gN_PubCQhVFrm74Xssx4k4vlH8deISmAH1fWlJzVcY67SdQyWxb6dZys1l6HCbTAsbzjdSAkHeQa4V8UGqNa59LrwZ8KotEvX7hXTPXfUG0JoVfkTsHdpHjez1-FC3M8NmwawziQMXGhQGzTxjkxLiRjsMw3E44Hd_Rg86wk5CZ3BjcpnkOnYQAB7ABDHklv0dhJAPp7SRa1MzNFxvcapIVwLAT3YlqnIjHZwG-sDn3i3-RQpDTRDXHJQ-XyNhy1sBlN3HARjuOXljxOaIBC79yFQ4wdrSV7R2R3AkubjOYRrDXqEJyAcsG0dQJggBSCAge3QRWir8jYuIDFqzoXey0y0]--></g></svg>